<mxfile host="app.diagrams.net" agent="Mozilla/5.0 (X11; Linux x86_64; rv:133.0) Gecko/20100101 Firefox/133.0" version="26.0.4">
  <diagram name="Strona-1" id="BKRCGYSCSxQTf5-9NvbP">
    <mxGraphModel dx="1674" dy="790" grid="1" gridSize="10" guides="1" tooltips="1" connect="1" arrows="1" fold="1" page="1" pageScale="1" pageWidth="827" pageHeight="1169" math="0" shadow="0">
      <root>
        <mxCell id="0" />
        <mxCell id="1" parent="0" />
        <mxCell id="gi1XLsN8kIvkIA_QPjhN-1" value="View all elements of specific type (hall or table)" style="rounded=1;whiteSpace=wrap;html=1;fillStyle=solid;fillColor=#FFA399;" parent="1" vertex="1">
          <mxGeometry x="80" y="40" width="120" height="60" as="geometry" />
        </mxCell>
        <mxCell id="gi1XLsN8kIvkIA_QPjhN-2" value="" style="endArrow=open;html=1;rounded=0;endFill=0;entryX=0;entryY=0.5;entryDx=0;entryDy=0;" parent="1" target="gi1XLsN8kIvkIA_QPjhN-1" edge="1">
          <mxGeometry width="50" height="50" relative="1" as="geometry">
            <mxPoint x="20" y="70" as="sourcePoint" />
            <mxPoint x="80" y="70" as="targetPoint" />
          </mxGeometry>
        </mxCell>
        <mxCell id="gi1XLsN8kIvkIA_QPjhN-3" value="Q1" style="text;html=1;align=center;verticalAlign=middle;whiteSpace=wrap;rounded=0;fillColor=default;" parent="1" vertex="1">
          <mxGeometry x="32" y="64" width="30" height="10" as="geometry" />
        </mxCell>
        <mxCell id="gi1XLsN8kIvkIA_QPjhN-6" value="Reserve an element" style="rounded=1;whiteSpace=wrap;html=1;fillStyle=solid;fillColor=#FFA399;" parent="1" vertex="1">
          <mxGeometry x="260" y="39" width="120" height="60" as="geometry" />
        </mxCell>
        <mxCell id="gi1XLsN8kIvkIA_QPjhN-7" value="" style="endArrow=open;html=1;rounded=0;endFill=0;entryX=0;entryY=0.5;entryDx=0;entryDy=0;dashed=1;" parent="1" target="gi1XLsN8kIvkIA_QPjhN-6" edge="1">
          <mxGeometry width="50" height="50" relative="1" as="geometry">
            <mxPoint x="200" y="69" as="sourcePoint" />
            <mxPoint x="260" y="69" as="targetPoint" />
          </mxGeometry>
        </mxCell>
        <mxCell id="gi1XLsN8kIvkIA_QPjhN-9" value="" style="endArrow=open;html=1;rounded=0;endFill=0;" parent="1" edge="1">
          <mxGeometry width="50" height="50" relative="1" as="geometry">
            <mxPoint x="139.8" y="99" as="sourcePoint" />
            <mxPoint x="139.8" y="153" as="targetPoint" />
          </mxGeometry>
        </mxCell>
        <mxCell id="gi1XLsN8kIvkIA_QPjhN-10" value="Q2" style="text;html=1;align=center;verticalAlign=middle;whiteSpace=wrap;rounded=0;fillColor=default;" parent="1" vertex="1">
          <mxGeometry x="125" y="120" width="30" height="10" as="geometry" />
        </mxCell>
        <mxCell id="gi1XLsN8kIvkIA_QPjhN-11" value="View element details" style="rounded=1;whiteSpace=wrap;html=1;fillStyle=solid;fillColor=#FFA399;" parent="1" vertex="1">
          <mxGeometry x="80" y="153" width="120" height="60" as="geometry" />
        </mxCell>
        <mxCell id="gi1XLsN8kIvkIA_QPjhN-14" value="" style="endArrow=open;html=1;rounded=0;endFill=0;" parent="1" edge="1">
          <mxGeometry width="50" height="50" relative="1" as="geometry">
            <mxPoint x="319.8" y="99" as="sourcePoint" />
            <mxPoint x="319.8" y="153" as="targetPoint" />
          </mxGeometry>
        </mxCell>
        <mxCell id="gi1XLsN8kIvkIA_QPjhN-15" value="Q3" style="text;html=1;align=center;verticalAlign=middle;whiteSpace=wrap;rounded=0;fillColor=default;" parent="1" vertex="1">
          <mxGeometry x="305" y="120" width="30" height="10" as="geometry" />
        </mxCell>
        <mxCell id="gi1XLsN8kIvkIA_QPjhN-16" value="View halls/tables reservations for a date" style="rounded=1;whiteSpace=wrap;html=1;fillStyle=solid;fillColor=#FFA399;" parent="1" vertex="1">
          <mxGeometry x="260" y="153" width="120" height="60" as="geometry" />
        </mxCell>
        <mxCell id="gi1XLsN8kIvkIA_QPjhN-17" value="Find element reservations by client id" style="rounded=1;whiteSpace=wrap;html=1;fillStyle=solid;fillColor=#FFA399;" parent="1" vertex="1">
          <mxGeometry x="440" y="39" width="120" height="60" as="geometry" />
        </mxCell>
        <mxCell id="gi1XLsN8kIvkIA_QPjhN-18" value="" style="endArrow=open;html=1;rounded=0;endFill=0;entryX=0;entryY=0.5;entryDx=0;entryDy=0;" parent="1" target="gi1XLsN8kIvkIA_QPjhN-17" edge="1">
          <mxGeometry width="50" height="50" relative="1" as="geometry">
            <mxPoint x="380" y="69" as="sourcePoint" />
            <mxPoint x="440" y="69" as="targetPoint" />
          </mxGeometry>
        </mxCell>
        <mxCell id="gi1XLsN8kIvkIA_QPjhN-19" value="Q4" style="text;html=1;align=center;verticalAlign=middle;whiteSpace=wrap;rounded=0;fillColor=default;" parent="1" vertex="1">
          <mxGeometry x="392" y="63" width="30" height="10" as="geometry" />
        </mxCell>
        <mxCell id="gi1XLsN8kIvkIA_QPjhN-20" value="" style="endArrow=open;html=1;rounded=0;endFill=0;entryX=0;entryY=0.5;entryDx=0;entryDy=0;" parent="1" edge="1">
          <mxGeometry width="50" height="50" relative="1" as="geometry">
            <mxPoint x="380" y="184" as="sourcePoint" />
            <mxPoint x="440" y="184" as="targetPoint" />
          </mxGeometry>
        </mxCell>
        <mxCell id="gi1XLsN8kIvkIA_QPjhN-21" value="Q5" style="text;html=1;align=center;verticalAlign=middle;whiteSpace=wrap;rounded=0;fillColor=default;" parent="1" vertex="1">
          <mxGeometry x="392" y="178" width="30" height="10" as="geometry" />
        </mxCell>
        <mxCell id="gi1XLsN8kIvkIA_QPjhN-22" value="View client details" style="rounded=1;whiteSpace=wrap;html=1;fillStyle=solid;fillColor=#FFA399;" parent="1" vertex="1">
          <mxGeometry x="440" y="153" width="120" height="60" as="geometry" />
        </mxCell>
        <mxCell id="gi1XLsN8kIvkIA_QPjhN-24" value="" style="endArrow=open;html=1;rounded=0;endFill=0;" parent="1" edge="1">
          <mxGeometry width="50" height="50" relative="1" as="geometry">
            <mxPoint x="499.8" y="98" as="sourcePoint" />
            <mxPoint x="499.8" y="152" as="targetPoint" />
          </mxGeometry>
        </mxCell>
        <mxCell id="gi1XLsN8kIvkIA_QPjhN-25" value="Q5" style="text;html=1;align=center;verticalAlign=middle;whiteSpace=wrap;rounded=0;fillColor=default;" parent="1" vertex="1">
          <mxGeometry x="485" y="119" width="30" height="10" as="geometry" />
        </mxCell>
        <mxCell id="gi1XLsN8kIvkIA_QPjhN-26" value="reservations_by_date" style="swimlane;fontStyle=0;childLayout=stackLayout;horizontal=1;startSize=30;horizontalStack=0;resizeParent=1;resizeParentMax=0;resizeLast=0;collapsible=1;marginBottom=0;whiteSpace=wrap;html=1;" parent="1" vertex="1">
          <mxGeometry x="530" y="336" width="170" height="120" as="geometry" />
        </mxCell>
        <mxCell id="gi1XLsN8kIvkIA_QPjhN-27" value="date" style="text;strokeColor=none;fillColor=none;align=left;verticalAlign=middle;spacingLeft=4;spacingRight=4;overflow=hidden;points=[[0,0.5],[1,0.5]];portConstraint=eastwest;rotatable=0;whiteSpace=wrap;html=1;" parent="gi1XLsN8kIvkIA_QPjhN-26" vertex="1">
          <mxGeometry y="30" width="170" height="30" as="geometry" />
        </mxCell>
        <mxCell id="gi1XLsN8kIvkIA_QPjhN-29" value="element_id" style="text;strokeColor=none;fillColor=none;align=left;verticalAlign=middle;spacingLeft=4;spacingRight=4;overflow=hidden;points=[[0,0.5],[1,0.5]];portConstraint=eastwest;rotatable=0;whiteSpace=wrap;html=1;" parent="gi1XLsN8kIvkIA_QPjhN-26" vertex="1">
          <mxGeometry y="60" width="170" height="30" as="geometry" />
        </mxCell>
        <mxCell id="gi1XLsN8kIvkIA_QPjhN-48" value="element_type" style="text;strokeColor=none;fillColor=none;align=left;verticalAlign=middle;spacingLeft=4;spacingRight=4;overflow=hidden;points=[[0,0.5],[1,0.5]];portConstraint=eastwest;rotatable=0;whiteSpace=wrap;html=1;" parent="gi1XLsN8kIvkIA_QPjhN-26" vertex="1">
          <mxGeometry y="90" width="170" height="30" as="geometry" />
        </mxCell>
        <mxCell id="gi1XLsN8kIvkIA_QPjhN-30" value="elements" style="swimlane;fontStyle=0;childLayout=stackLayout;horizontal=1;startSize=30;horizontalStack=0;resizeParent=1;resizeParentMax=0;resizeLast=0;collapsible=1;marginBottom=0;whiteSpace=wrap;html=1;" parent="1" vertex="1">
          <mxGeometry x="80" y="290" width="170" height="300" as="geometry" />
        </mxCell>
        <mxCell id="gi1XLsN8kIvkIA_QPjhN-43" value="element_type" style="text;strokeColor=none;fillColor=none;align=left;verticalAlign=middle;spacingLeft=4;spacingRight=4;overflow=hidden;points=[[0,0.5],[1,0.5]];portConstraint=eastwest;rotatable=0;whiteSpace=wrap;html=1;" parent="gi1XLsN8kIvkIA_QPjhN-30" vertex="1">
          <mxGeometry y="30" width="170" height="30" as="geometry" />
        </mxCell>
        <mxCell id="gi1XLsN8kIvkIA_QPjhN-39" value="element_id" style="text;strokeColor=none;fillColor=none;align=left;verticalAlign=middle;spacingLeft=4;spacingRight=4;overflow=hidden;points=[[0,0.5],[1,0.5]];portConstraint=eastwest;rotatable=0;whiteSpace=wrap;html=1;" parent="gi1XLsN8kIvkIA_QPjhN-30" vertex="1">
          <mxGeometry y="60" width="170" height="30" as="geometry" />
        </mxCell>
        <mxCell id="gi1XLsN8kIvkIA_QPjhN-33" value="name" style="text;strokeColor=none;fillColor=none;align=left;verticalAlign=middle;spacingLeft=4;spacingRight=4;overflow=hidden;points=[[0,0.5],[1,0.5]];portConstraint=eastwest;rotatable=0;whiteSpace=wrap;html=1;" parent="gi1XLsN8kIvkIA_QPjhN-30" vertex="1">
          <mxGeometry y="90" width="170" height="30" as="geometry" />
        </mxCell>
        <mxCell id="gi1XLsN8kIvkIA_QPjhN-31" value="price_per_person" style="text;strokeColor=none;fillColor=none;align=left;verticalAlign=middle;spacingLeft=4;spacingRight=4;overflow=hidden;points=[[0,0.5],[1,0.5]];portConstraint=eastwest;rotatable=0;whiteSpace=wrap;html=1;" parent="gi1XLsN8kIvkIA_QPjhN-30" vertex="1">
          <mxGeometry y="120" width="170" height="30" as="geometry" />
        </mxCell>
        <mxCell id="gi1XLsN8kIvkIA_QPjhN-32" value="max_capacity" style="text;strokeColor=none;fillColor=none;align=left;verticalAlign=middle;spacingLeft=4;spacingRight=4;overflow=hidden;points=[[0,0.5],[1,0.5]];portConstraint=eastwest;rotatable=0;whiteSpace=wrap;html=1;" parent="gi1XLsN8kIvkIA_QPjhN-30" vertex="1">
          <mxGeometry y="150" width="170" height="30" as="geometry" />
        </mxCell>
        <mxCell id="gi1XLsN8kIvkIA_QPjhN-35" value="premium" style="text;strokeColor=none;fillColor=none;align=left;verticalAlign=middle;spacingLeft=4;spacingRight=4;overflow=hidden;points=[[0,0.5],[1,0.5]];portConstraint=eastwest;rotatable=0;whiteSpace=wrap;html=1;" parent="gi1XLsN8kIvkIA_QPjhN-30" vertex="1">
          <mxGeometry y="180" width="170" height="30" as="geometry" />
        </mxCell>
        <mxCell id="gi1XLsN8kIvkIA_QPjhN-36" value="base_price" style="text;strokeColor=none;fillColor=none;align=left;verticalAlign=middle;spacingLeft=4;spacingRight=4;overflow=hidden;points=[[0,0.5],[1,0.5]];portConstraint=eastwest;rotatable=0;whiteSpace=wrap;html=1;" parent="gi1XLsN8kIvkIA_QPjhN-30" vertex="1">
          <mxGeometry y="210" width="170" height="30" as="geometry" />
        </mxCell>
        <mxCell id="gi1XLsN8kIvkIA_QPjhN-37" value="dance_floor" style="text;strokeColor=none;fillColor=none;align=left;verticalAlign=middle;spacingLeft=4;spacingRight=4;overflow=hidden;points=[[0,0.5],[1,0.5]];portConstraint=eastwest;rotatable=0;whiteSpace=wrap;html=1;" parent="gi1XLsN8kIvkIA_QPjhN-30" vertex="1">
          <mxGeometry y="240" width="170" height="30" as="geometry" />
        </mxCell>
        <mxCell id="gi1XLsN8kIvkIA_QPjhN-38" value="bar" style="text;strokeColor=none;fillColor=none;align=left;verticalAlign=middle;spacingLeft=4;spacingRight=4;overflow=hidden;points=[[0,0.5],[1,0.5]];portConstraint=eastwest;rotatable=0;whiteSpace=wrap;html=1;" parent="gi1XLsN8kIvkIA_QPjhN-30" vertex="1">
          <mxGeometry y="270" width="170" height="30" as="geometry" />
        </mxCell>
        <mxCell id="gi1XLsN8kIvkIA_QPjhN-41" value="K" style="text;html=1;align=center;verticalAlign=middle;whiteSpace=wrap;rounded=0;" parent="1" vertex="1">
          <mxGeometry x="196" y="319" width="60" height="30" as="geometry" />
        </mxCell>
        <mxCell id="gi1XLsN8kIvkIA_QPjhN-44" value="C↑" style="text;html=1;align=center;verticalAlign=middle;whiteSpace=wrap;rounded=0;" parent="1" vertex="1">
          <mxGeometry x="198" y="350" width="60" height="30" as="geometry" />
        </mxCell>
        <mxCell id="gi1XLsN8kIvkIA_QPjhN-46" value="K" style="text;html=1;align=center;verticalAlign=middle;whiteSpace=wrap;rounded=0;" parent="1" vertex="1">
          <mxGeometry x="648" y="366" width="60" height="30" as="geometry" />
        </mxCell>
        <mxCell id="gi1XLsN8kIvkIA_QPjhN-47" value="C↑" style="text;html=1;align=center;verticalAlign=middle;whiteSpace=wrap;rounded=0;" parent="1" vertex="1">
          <mxGeometry x="650" y="395" width="60" height="30" as="geometry" />
        </mxCell>
        <mxCell id="gi1XLsN8kIvkIA_QPjhN-50" value="reservations_by_client" style="swimlane;fontStyle=0;childLayout=stackLayout;horizontal=1;startSize=30;horizontalStack=0;resizeParent=1;resizeParentMax=0;resizeLast=0;collapsible=1;marginBottom=0;whiteSpace=wrap;html=1;" parent="1" vertex="1">
          <mxGeometry x="332" y="320" width="170" height="150" as="geometry" />
        </mxCell>
        <mxCell id="gi1XLsN8kIvkIA_QPjhN-51" value="client_id" style="text;strokeColor=none;fillColor=none;align=left;verticalAlign=middle;spacingLeft=4;spacingRight=4;overflow=hidden;points=[[0,0.5],[1,0.5]];portConstraint=eastwest;rotatable=0;whiteSpace=wrap;html=1;" parent="gi1XLsN8kIvkIA_QPjhN-50" vertex="1">
          <mxGeometry y="30" width="170" height="30" as="geometry" />
        </mxCell>
        <mxCell id="gi1XLsN8kIvkIA_QPjhN-56" value="date" style="text;strokeColor=none;fillColor=none;align=left;verticalAlign=middle;spacingLeft=4;spacingRight=4;overflow=hidden;points=[[0,0.5],[1,0.5]];portConstraint=eastwest;rotatable=0;whiteSpace=wrap;html=1;" parent="gi1XLsN8kIvkIA_QPjhN-50" vertex="1">
          <mxGeometry y="60" width="170" height="30" as="geometry" />
        </mxCell>
        <mxCell id="gi1XLsN8kIvkIA_QPjhN-54" value="element_id" style="text;strokeColor=none;fillColor=none;align=left;verticalAlign=middle;spacingLeft=4;spacingRight=4;overflow=hidden;points=[[0,0.5],[1,0.5]];portConstraint=eastwest;rotatable=0;whiteSpace=wrap;html=1;" parent="gi1XLsN8kIvkIA_QPjhN-50" vertex="1">
          <mxGeometry y="90" width="170" height="30" as="geometry" />
        </mxCell>
        <mxCell id="gi1XLsN8kIvkIA_QPjhN-55" value="element_name" style="text;strokeColor=none;fillColor=none;align=left;verticalAlign=middle;spacingLeft=4;spacingRight=4;overflow=hidden;points=[[0,0.5],[1,0.5]];portConstraint=eastwest;rotatable=0;whiteSpace=wrap;html=1;" parent="gi1XLsN8kIvkIA_QPjhN-50" vertex="1">
          <mxGeometry y="120" width="170" height="30" as="geometry" />
        </mxCell>
        <mxCell id="gi1XLsN8kIvkIA_QPjhN-58" value="K" style="text;html=1;align=center;verticalAlign=middle;whiteSpace=wrap;rounded=0;" parent="1" vertex="1">
          <mxGeometry x="448" y="350" width="60" height="30" as="geometry" />
        </mxCell>
        <mxCell id="gi1XLsN8kIvkIA_QPjhN-60" value="C↑" style="text;html=1;align=center;verticalAlign=middle;whiteSpace=wrap;rounded=0;" parent="1" vertex="1">
          <mxGeometry x="450" y="380" width="60" height="30" as="geometry" />
        </mxCell>
        <mxCell id="gi1XLsN8kIvkIA_QPjhN-61" value="clients" style="swimlane;fontStyle=0;childLayout=stackLayout;horizontal=1;startSize=30;horizontalStack=0;resizeParent=1;resizeParentMax=0;resizeLast=0;collapsible=1;marginBottom=0;whiteSpace=wrap;html=1;" parent="1" vertex="1">
          <mxGeometry x="430" y="531" width="170" height="150" as="geometry" />
        </mxCell>
        <mxCell id="gi1XLsN8kIvkIA_QPjhN-62" value="client_id" style="text;strokeColor=none;fillColor=none;align=left;verticalAlign=middle;spacingLeft=4;spacingRight=4;overflow=hidden;points=[[0,0.5],[1,0.5]];portConstraint=eastwest;rotatable=0;whiteSpace=wrap;html=1;" parent="gi1XLsN8kIvkIA_QPjhN-61" vertex="1">
          <mxGeometry y="30" width="170" height="30" as="geometry" />
        </mxCell>
        <mxCell id="gi1XLsN8kIvkIA_QPjhN-63" value="first_name" style="text;strokeColor=none;fillColor=none;align=left;verticalAlign=middle;spacingLeft=4;spacingRight=4;overflow=hidden;points=[[0,0.5],[1,0.5]];portConstraint=eastwest;rotatable=0;whiteSpace=wrap;html=1;" parent="gi1XLsN8kIvkIA_QPjhN-61" vertex="1">
          <mxGeometry y="60" width="170" height="30" as="geometry" />
        </mxCell>
        <mxCell id="gi1XLsN8kIvkIA_QPjhN-64" value="last_name" style="text;strokeColor=none;fillColor=none;align=left;verticalAlign=middle;spacingLeft=4;spacingRight=4;overflow=hidden;points=[[0,0.5],[1,0.5]];portConstraint=eastwest;rotatable=0;whiteSpace=wrap;html=1;" parent="gi1XLsN8kIvkIA_QPjhN-61" vertex="1">
          <mxGeometry y="90" width="170" height="30" as="geometry" />
        </mxCell>
        <mxCell id="gi1XLsN8kIvkIA_QPjhN-65" value="personal_id" style="text;strokeColor=none;fillColor=none;align=left;verticalAlign=middle;spacingLeft=4;spacingRight=4;overflow=hidden;points=[[0,0.5],[1,0.5]];portConstraint=eastwest;rotatable=0;whiteSpace=wrap;html=1;" parent="gi1XLsN8kIvkIA_QPjhN-61" vertex="1">
          <mxGeometry y="120" width="170" height="30" as="geometry" />
        </mxCell>
        <mxCell id="gi1XLsN8kIvkIA_QPjhN-71" value="K" style="text;html=1;align=center;verticalAlign=middle;whiteSpace=wrap;rounded=0;" parent="1" vertex="1">
          <mxGeometry x="555" y="560" width="60" height="30" as="geometry" />
        </mxCell>
        <mxCell id="gi1XLsN8kIvkIA_QPjhN-74" value="" style="endArrow=open;html=1;rounded=0;endFill=0;entryX=0;entryY=0.5;entryDx=0;entryDy=0;" parent="1" edge="1">
          <mxGeometry width="50" height="50" relative="1" as="geometry">
            <mxPoint x="20" y="351" as="sourcePoint" />
            <mxPoint x="80" y="351" as="targetPoint" />
          </mxGeometry>
        </mxCell>
        <mxCell id="gi1XLsN8kIvkIA_QPjhN-75" value="Q1" style="text;html=1;align=center;verticalAlign=middle;whiteSpace=wrap;rounded=0;fillColor=default;" parent="1" vertex="1">
          <mxGeometry x="32" y="345" width="30" height="10" as="geometry" />
        </mxCell>
        <mxCell id="gi1XLsN8kIvkIA_QPjhN-76" value="" style="endArrow=open;html=1;rounded=0;endFill=0;entryX=0.666;entryY=1.053;entryDx=0;entryDy=0;entryPerimeter=0;" parent="1" edge="1">
          <mxGeometry width="50" height="50" relative="1" as="geometry">
            <mxPoint x="193" y="629" as="sourcePoint" />
            <mxPoint x="193.22000000000003" y="590.59" as="targetPoint" />
          </mxGeometry>
        </mxCell>
        <mxCell id="gi1XLsN8kIvkIA_QPjhN-77" value="Q2" style="text;html=1;align=center;verticalAlign=middle;whiteSpace=wrap;rounded=0;fillColor=default;" parent="1" vertex="1">
          <mxGeometry x="178" y="607" width="30" height="10" as="geometry" />
        </mxCell>
        <mxCell id="gi1XLsN8kIvkIA_QPjhN-78" value="" style="endArrow=none;html=1;rounded=0;" parent="1" edge="1">
          <mxGeometry width="50" height="50" relative="1" as="geometry">
            <mxPoint x="132.8" y="630" as="sourcePoint" />
            <mxPoint x="132.8" y="590" as="targetPoint" />
          </mxGeometry>
        </mxCell>
        <mxCell id="gi1XLsN8kIvkIA_QPjhN-80" value="" style="endArrow=none;html=1;rounded=0;" parent="1" edge="1">
          <mxGeometry width="50" height="50" relative="1" as="geometry">
            <mxPoint x="133" y="629" as="sourcePoint" />
            <mxPoint x="193" y="629" as="targetPoint" />
          </mxGeometry>
        </mxCell>
        <mxCell id="gi1XLsN8kIvkIA_QPjhN-81" value="" style="endArrow=open;html=1;rounded=0;endFill=0;" parent="1" edge="1">
          <mxGeometry width="50" height="50" relative="1" as="geometry">
            <mxPoint x="614.8" y="282" as="sourcePoint" />
            <mxPoint x="614.8" y="336" as="targetPoint" />
          </mxGeometry>
        </mxCell>
        <mxCell id="gi1XLsN8kIvkIA_QPjhN-82" value="Q3" style="text;html=1;align=center;verticalAlign=middle;whiteSpace=wrap;rounded=0;fillColor=default;" parent="1" vertex="1">
          <mxGeometry x="600" y="303" width="30" height="10" as="geometry" />
        </mxCell>
        <mxCell id="gi1XLsN8kIvkIA_QPjhN-83" value="" style="endArrow=open;html=1;rounded=0;endFill=0;" parent="1" edge="1">
          <mxGeometry width="50" height="50" relative="1" as="geometry">
            <mxPoint x="414.8" y="266" as="sourcePoint" />
            <mxPoint x="414.8" y="320" as="targetPoint" />
          </mxGeometry>
        </mxCell>
        <mxCell id="gi1XLsN8kIvkIA_QPjhN-84" value="Q4" style="text;html=1;align=center;verticalAlign=middle;whiteSpace=wrap;rounded=0;fillColor=default;" parent="1" vertex="1">
          <mxGeometry x="400" y="287" width="30" height="10" as="geometry" />
        </mxCell>
        <mxCell id="gi1XLsN8kIvkIA_QPjhN-85" value="" style="endArrow=open;html=1;rounded=0;endFill=0;exitX=0.205;exitY=1.036;exitDx=0;exitDy=0;exitPerimeter=0;" parent="1" source="gi1XLsN8kIvkIA_QPjhN-48" edge="1">
          <mxGeometry width="50" height="50" relative="1" as="geometry">
            <mxPoint x="565" y="460" as="sourcePoint" />
            <mxPoint x="564.8" y="531" as="targetPoint" />
          </mxGeometry>
        </mxCell>
        <mxCell id="gi1XLsN8kIvkIA_QPjhN-86" value="Q5" style="text;html=1;align=center;verticalAlign=middle;whiteSpace=wrap;rounded=0;fillColor=default;" parent="1" vertex="1">
          <mxGeometry x="550" y="498" width="30" height="10" as="geometry" />
        </mxCell>
        <mxCell id="gi1XLsN8kIvkIA_QPjhN-87" value="" style="endArrow=open;html=1;rounded=0;endFill=0;exitX=0.294;exitY=1;exitDx=0;exitDy=0;exitPerimeter=0;" parent="1" edge="1">
          <mxGeometry width="50" height="50" relative="1" as="geometry">
            <mxPoint x="464.64" y="470" as="sourcePoint" />
            <mxPoint x="464.79999999999995" y="530" as="targetPoint" />
          </mxGeometry>
        </mxCell>
        <mxCell id="gi1XLsN8kIvkIA_QPjhN-88" value="Q5" style="text;html=1;align=center;verticalAlign=middle;whiteSpace=wrap;rounded=0;fillColor=default;" parent="1" vertex="1">
          <mxGeometry x="450" y="497" width="30" height="10" as="geometry" />
        </mxCell>
        <mxCell id="gi1XLsN8kIvkIA_QPjhN-90" value="C↑" style="text;html=1;align=center;verticalAlign=middle;whiteSpace=wrap;rounded=0;" parent="1" vertex="1">
          <mxGeometry x="450" y="411" width="60" height="30" as="geometry" />
        </mxCell>
        <mxCell id="gi1XLsN8kIvkIA_QPjhN-91" value="" style="rounded=1;whiteSpace=wrap;html=1;" parent="1" vertex="1">
          <mxGeometry x="5" y="750" width="635" height="400" as="geometry" />
        </mxCell>
        <mxCell id="gi1XLsN8kIvkIA_QPjhN-92" value="Restaurant keyspace" style="text;html=1;align=center;verticalAlign=middle;whiteSpace=wrap;rounded=0;" parent="1" vertex="1">
          <mxGeometry x="40" y="760" width="140" height="30" as="geometry" />
        </mxCell>
        <mxCell id="gi1XLsN8kIvkIA_QPjhN-93" value="elements" style="swimlane;fontStyle=0;childLayout=stackLayout;horizontal=1;startSize=30;horizontalStack=0;resizeParent=1;resizeParentMax=0;resizeLast=0;collapsible=1;marginBottom=0;whiteSpace=wrap;html=1;" parent="1" vertex="1">
          <mxGeometry x="40" y="790" width="170" height="300" as="geometry" />
        </mxCell>
        <mxCell id="gi1XLsN8kIvkIA_QPjhN-94" value="element_type" style="text;strokeColor=none;fillColor=none;align=left;verticalAlign=middle;spacingLeft=4;spacingRight=4;overflow=hidden;points=[[0,0.5],[1,0.5]];portConstraint=eastwest;rotatable=0;whiteSpace=wrap;html=1;" parent="gi1XLsN8kIvkIA_QPjhN-93" vertex="1">
          <mxGeometry y="30" width="170" height="30" as="geometry" />
        </mxCell>
        <mxCell id="gi1XLsN8kIvkIA_QPjhN-95" value="element_id" style="text;strokeColor=none;fillColor=none;align=left;verticalAlign=middle;spacingLeft=4;spacingRight=4;overflow=hidden;points=[[0,0.5],[1,0.5]];portConstraint=eastwest;rotatable=0;whiteSpace=wrap;html=1;" parent="gi1XLsN8kIvkIA_QPjhN-93" vertex="1">
          <mxGeometry y="60" width="170" height="30" as="geometry" />
        </mxCell>
        <mxCell id="gi1XLsN8kIvkIA_QPjhN-96" value="name" style="text;strokeColor=none;fillColor=none;align=left;verticalAlign=middle;spacingLeft=4;spacingRight=4;overflow=hidden;points=[[0,0.5],[1,0.5]];portConstraint=eastwest;rotatable=0;whiteSpace=wrap;html=1;" parent="gi1XLsN8kIvkIA_QPjhN-93" vertex="1">
          <mxGeometry y="90" width="170" height="30" as="geometry" />
        </mxCell>
        <mxCell id="gi1XLsN8kIvkIA_QPjhN-97" value="price_per_person" style="text;strokeColor=none;fillColor=none;align=left;verticalAlign=middle;spacingLeft=4;spacingRight=4;overflow=hidden;points=[[0,0.5],[1,0.5]];portConstraint=eastwest;rotatable=0;whiteSpace=wrap;html=1;" parent="gi1XLsN8kIvkIA_QPjhN-93" vertex="1">
          <mxGeometry y="120" width="170" height="30" as="geometry" />
        </mxCell>
        <mxCell id="gi1XLsN8kIvkIA_QPjhN-98" value="max_capacity" style="text;strokeColor=none;fillColor=none;align=left;verticalAlign=middle;spacingLeft=4;spacingRight=4;overflow=hidden;points=[[0,0.5],[1,0.5]];portConstraint=eastwest;rotatable=0;whiteSpace=wrap;html=1;" parent="gi1XLsN8kIvkIA_QPjhN-93" vertex="1">
          <mxGeometry y="150" width="170" height="30" as="geometry" />
        </mxCell>
        <mxCell id="gi1XLsN8kIvkIA_QPjhN-99" value="premium" style="text;strokeColor=none;fillColor=none;align=left;verticalAlign=middle;spacingLeft=4;spacingRight=4;overflow=hidden;points=[[0,0.5],[1,0.5]];portConstraint=eastwest;rotatable=0;whiteSpace=wrap;html=1;" parent="gi1XLsN8kIvkIA_QPjhN-93" vertex="1">
          <mxGeometry y="180" width="170" height="30" as="geometry" />
        </mxCell>
        <mxCell id="gi1XLsN8kIvkIA_QPjhN-100" value="base_price" style="text;strokeColor=none;fillColor=none;align=left;verticalAlign=middle;spacingLeft=4;spacingRight=4;overflow=hidden;points=[[0,0.5],[1,0.5]];portConstraint=eastwest;rotatable=0;whiteSpace=wrap;html=1;" parent="gi1XLsN8kIvkIA_QPjhN-93" vertex="1">
          <mxGeometry y="210" width="170" height="30" as="geometry" />
        </mxCell>
        <mxCell id="gi1XLsN8kIvkIA_QPjhN-101" value="dance_floor" style="text;strokeColor=none;fillColor=none;align=left;verticalAlign=middle;spacingLeft=4;spacingRight=4;overflow=hidden;points=[[0,0.5],[1,0.5]];portConstraint=eastwest;rotatable=0;whiteSpace=wrap;html=1;" parent="gi1XLsN8kIvkIA_QPjhN-93" vertex="1">
          <mxGeometry y="240" width="170" height="30" as="geometry" />
        </mxCell>
        <mxCell id="gi1XLsN8kIvkIA_QPjhN-102" value="bar" style="text;strokeColor=none;fillColor=none;align=left;verticalAlign=middle;spacingLeft=4;spacingRight=4;overflow=hidden;points=[[0,0.5],[1,0.5]];portConstraint=eastwest;rotatable=0;whiteSpace=wrap;html=1;" parent="gi1XLsN8kIvkIA_QPjhN-93" vertex="1">
          <mxGeometry y="270" width="170" height="30" as="geometry" />
        </mxCell>
        <mxCell id="gi1XLsN8kIvkIA_QPjhN-103" value="K" style="text;html=1;align=center;verticalAlign=middle;whiteSpace=wrap;rounded=0;" parent="1" vertex="1">
          <mxGeometry x="156" y="819" width="60" height="30" as="geometry" />
        </mxCell>
        <mxCell id="gi1XLsN8kIvkIA_QPjhN-104" value="C↑" style="text;html=1;align=center;verticalAlign=middle;whiteSpace=wrap;rounded=0;" parent="1" vertex="1">
          <mxGeometry x="158" y="850" width="60" height="30" as="geometry" />
        </mxCell>
        <mxCell id="gi1XLsN8kIvkIA_QPjhN-105" value="text" style="rounded=1;whiteSpace=wrap;html=1;fillColor=#E0F9FF;" parent="1" vertex="1">
          <mxGeometry x="142" y="826" width="35" height="20" as="geometry" />
        </mxCell>
        <mxCell id="gi1XLsN8kIvkIA_QPjhN-106" value="UUID" style="rounded=1;whiteSpace=wrap;html=1;fillColor=#E0F9FF;" parent="1" vertex="1">
          <mxGeometry x="142" y="854" width="35" height="20" as="geometry" />
        </mxCell>
        <mxCell id="gi1XLsN8kIvkIA_QPjhN-107" value="text" style="rounded=1;whiteSpace=wrap;html=1;fillColor=#E0F9FF;" parent="1" vertex="1">
          <mxGeometry x="142" y="885" width="35" height="20" as="geometry" />
        </mxCell>
        <mxCell id="gi1XLsN8kIvkIA_QPjhN-108" value="double" style="rounded=1;whiteSpace=wrap;html=1;fillColor=#E0F9FF;" parent="1" vertex="1">
          <mxGeometry x="143" y="914" width="35" height="20" as="geometry" />
        </mxCell>
        <mxCell id="gi1XLsN8kIvkIA_QPjhN-109" value="int" style="rounded=1;whiteSpace=wrap;html=1;fillColor=#E0F9FF;" parent="1" vertex="1">
          <mxGeometry x="143" y="944" width="35" height="20" as="geometry" />
        </mxCell>
        <mxCell id="gi1XLsN8kIvkIA_QPjhN-110" value="boolean" style="rounded=1;whiteSpace=wrap;html=1;fillColor=#E0F9FF;" parent="1" vertex="1">
          <mxGeometry x="143" y="973" width="47" height="20" as="geometry" />
        </mxCell>
        <mxCell id="gi1XLsN8kIvkIA_QPjhN-111" value="double" style="rounded=1;whiteSpace=wrap;html=1;fillColor=#E0F9FF;" parent="1" vertex="1">
          <mxGeometry x="143" y="1004" width="35" height="20" as="geometry" />
        </mxCell>
        <mxCell id="gi1XLsN8kIvkIA_QPjhN-112" value="boolean" style="rounded=1;whiteSpace=wrap;html=1;fillColor=#E0F9FF;" parent="1" vertex="1">
          <mxGeometry x="143" y="1036" width="47" height="20" as="geometry" />
        </mxCell>
        <mxCell id="gi1XLsN8kIvkIA_QPjhN-113" value="boolean" style="rounded=1;whiteSpace=wrap;html=1;fillColor=#E0F9FF;" parent="1" vertex="1">
          <mxGeometry x="143" y="1064" width="47" height="20" as="geometry" />
        </mxCell>
        <mxCell id="gi1XLsN8kIvkIA_QPjhN-114" value="reservations_by_client" style="swimlane;fontStyle=0;childLayout=stackLayout;horizontal=1;startSize=30;horizontalStack=0;resizeParent=1;resizeParentMax=0;resizeLast=0;collapsible=1;marginBottom=0;whiteSpace=wrap;html=1;" parent="1" vertex="1">
          <mxGeometry x="236" y="790" width="170" height="150" as="geometry" />
        </mxCell>
        <mxCell id="gi1XLsN8kIvkIA_QPjhN-115" value="client_id" style="text;strokeColor=none;fillColor=none;align=left;verticalAlign=middle;spacingLeft=4;spacingRight=4;overflow=hidden;points=[[0,0.5],[1,0.5]];portConstraint=eastwest;rotatable=0;whiteSpace=wrap;html=1;" parent="gi1XLsN8kIvkIA_QPjhN-114" vertex="1">
          <mxGeometry y="30" width="170" height="30" as="geometry" />
        </mxCell>
        <mxCell id="gi1XLsN8kIvkIA_QPjhN-116" value="date" style="text;strokeColor=none;fillColor=none;align=left;verticalAlign=middle;spacingLeft=4;spacingRight=4;overflow=hidden;points=[[0,0.5],[1,0.5]];portConstraint=eastwest;rotatable=0;whiteSpace=wrap;html=1;" parent="gi1XLsN8kIvkIA_QPjhN-114" vertex="1">
          <mxGeometry y="60" width="170" height="30" as="geometry" />
        </mxCell>
        <mxCell id="gi1XLsN8kIvkIA_QPjhN-117" value="element_id" style="text;strokeColor=none;fillColor=none;align=left;verticalAlign=middle;spacingLeft=4;spacingRight=4;overflow=hidden;points=[[0,0.5],[1,0.5]];portConstraint=eastwest;rotatable=0;whiteSpace=wrap;html=1;" parent="gi1XLsN8kIvkIA_QPjhN-114" vertex="1">
          <mxGeometry y="90" width="170" height="30" as="geometry" />
        </mxCell>
        <mxCell id="gi1XLsN8kIvkIA_QPjhN-118" value="element_name" style="text;strokeColor=none;fillColor=none;align=left;verticalAlign=middle;spacingLeft=4;spacingRight=4;overflow=hidden;points=[[0,0.5],[1,0.5]];portConstraint=eastwest;rotatable=0;whiteSpace=wrap;html=1;" parent="gi1XLsN8kIvkIA_QPjhN-114" vertex="1">
          <mxGeometry y="120" width="170" height="30" as="geometry" />
        </mxCell>
        <mxCell id="gi1XLsN8kIvkIA_QPjhN-119" value="K" style="text;html=1;align=center;verticalAlign=middle;whiteSpace=wrap;rounded=0;" parent="1" vertex="1">
          <mxGeometry x="352" y="820" width="60" height="30" as="geometry" />
        </mxCell>
        <mxCell id="gi1XLsN8kIvkIA_QPjhN-120" value="C↑" style="text;html=1;align=center;verticalAlign=middle;whiteSpace=wrap;rounded=0;" parent="1" vertex="1">
          <mxGeometry x="354" y="850" width="60" height="30" as="geometry" />
        </mxCell>
        <mxCell id="gi1XLsN8kIvkIA_QPjhN-121" value="C↑" style="text;html=1;align=center;verticalAlign=middle;whiteSpace=wrap;rounded=0;" parent="1" vertex="1">
          <mxGeometry x="354" y="881" width="60" height="30" as="geometry" />
        </mxCell>
        <mxCell id="gi1XLsN8kIvkIA_QPjhN-122" value="UUID" style="rounded=1;whiteSpace=wrap;html=1;fillColor=#E0F9FF;" parent="1" vertex="1">
          <mxGeometry x="330" y="826" width="35" height="20" as="geometry" />
        </mxCell>
        <mxCell id="gi1XLsN8kIvkIA_QPjhN-123" value="UUID" style="rounded=1;whiteSpace=wrap;html=1;fillColor=#E0F9FF;" parent="1" vertex="1">
          <mxGeometry x="330" y="885" width="35" height="20" as="geometry" />
        </mxCell>
        <mxCell id="gi1XLsN8kIvkIA_QPjhN-124" value="date" style="rounded=1;whiteSpace=wrap;html=1;fillColor=#E0F9FF;" parent="1" vertex="1">
          <mxGeometry x="330" y="854" width="35" height="20" as="geometry" />
        </mxCell>
        <mxCell id="gi1XLsN8kIvkIA_QPjhN-125" value="text" style="rounded=1;whiteSpace=wrap;html=1;fillColor=#E0F9FF;" parent="1" vertex="1">
          <mxGeometry x="330" y="914" width="35" height="20" as="geometry" />
        </mxCell>
        <mxCell id="gi1XLsN8kIvkIA_QPjhN-126" value="reservations_by_date" style="swimlane;fontStyle=0;childLayout=stackLayout;horizontal=1;startSize=30;horizontalStack=0;resizeParent=1;resizeParentMax=0;resizeLast=0;collapsible=1;marginBottom=0;whiteSpace=wrap;html=1;" parent="1" vertex="1">
          <mxGeometry x="440" y="805" width="170" height="120" as="geometry" />
        </mxCell>
        <mxCell id="gi1XLsN8kIvkIA_QPjhN-127" value="date" style="text;strokeColor=none;fillColor=none;align=left;verticalAlign=middle;spacingLeft=4;spacingRight=4;overflow=hidden;points=[[0,0.5],[1,0.5]];portConstraint=eastwest;rotatable=0;whiteSpace=wrap;html=1;" parent="gi1XLsN8kIvkIA_QPjhN-126" vertex="1">
          <mxGeometry y="30" width="170" height="30" as="geometry" />
        </mxCell>
        <mxCell id="gi1XLsN8kIvkIA_QPjhN-128" value="element_id" style="text;strokeColor=none;fillColor=none;align=left;verticalAlign=middle;spacingLeft=4;spacingRight=4;overflow=hidden;points=[[0,0.5],[1,0.5]];portConstraint=eastwest;rotatable=0;whiteSpace=wrap;html=1;" parent="gi1XLsN8kIvkIA_QPjhN-126" vertex="1">
          <mxGeometry y="60" width="170" height="30" as="geometry" />
        </mxCell>
        <mxCell id="gi1XLsN8kIvkIA_QPjhN-129" value="element_type" style="text;strokeColor=none;fillColor=none;align=left;verticalAlign=middle;spacingLeft=4;spacingRight=4;overflow=hidden;points=[[0,0.5],[1,0.5]];portConstraint=eastwest;rotatable=0;whiteSpace=wrap;html=1;" parent="gi1XLsN8kIvkIA_QPjhN-126" vertex="1">
          <mxGeometry y="90" width="170" height="30" as="geometry" />
        </mxCell>
        <mxCell id="gi1XLsN8kIvkIA_QPjhN-130" value="K" style="text;html=1;align=center;verticalAlign=middle;whiteSpace=wrap;rounded=0;" parent="1" vertex="1">
          <mxGeometry x="558" y="835" width="60" height="30" as="geometry" />
        </mxCell>
        <mxCell id="gi1XLsN8kIvkIA_QPjhN-131" value="C↑" style="text;html=1;align=center;verticalAlign=middle;whiteSpace=wrap;rounded=0;" parent="1" vertex="1">
          <mxGeometry x="560" y="864" width="60" height="30" as="geometry" />
        </mxCell>
        <mxCell id="gi1XLsN8kIvkIA_QPjhN-132" value="date" style="rounded=1;whiteSpace=wrap;html=1;fillColor=#E0F9FF;" parent="1" vertex="1">
          <mxGeometry x="540" y="842" width="35" height="20" as="geometry" />
        </mxCell>
        <mxCell id="gi1XLsN8kIvkIA_QPjhN-133" value="UUID" style="rounded=1;whiteSpace=wrap;html=1;fillColor=#E0F9FF;" parent="1" vertex="1">
          <mxGeometry x="540" y="872" width="35" height="20" as="geometry" />
        </mxCell>
        <mxCell id="gi1XLsN8kIvkIA_QPjhN-134" value="text" style="rounded=1;whiteSpace=wrap;html=1;fillColor=#E0F9FF;" parent="1" vertex="1">
          <mxGeometry x="540" y="900" width="35" height="20" as="geometry" />
        </mxCell>
        <mxCell id="gi1XLsN8kIvkIA_QPjhN-135" value="clients" style="swimlane;fontStyle=0;childLayout=stackLayout;horizontal=1;startSize=30;horizontalStack=0;resizeParent=1;resizeParentMax=0;resizeLast=0;collapsible=1;marginBottom=0;whiteSpace=wrap;html=1;" parent="1" vertex="1">
          <mxGeometry x="440" y="941" width="170" height="150" as="geometry" />
        </mxCell>
        <mxCell id="gi1XLsN8kIvkIA_QPjhN-136" value="client_id" style="text;strokeColor=none;fillColor=none;align=left;verticalAlign=middle;spacingLeft=4;spacingRight=4;overflow=hidden;points=[[0,0.5],[1,0.5]];portConstraint=eastwest;rotatable=0;whiteSpace=wrap;html=1;" parent="gi1XLsN8kIvkIA_QPjhN-135" vertex="1">
          <mxGeometry y="30" width="170" height="30" as="geometry" />
        </mxCell>
        <mxCell id="gi1XLsN8kIvkIA_QPjhN-137" value="first_name" style="text;strokeColor=none;fillColor=none;align=left;verticalAlign=middle;spacingLeft=4;spacingRight=4;overflow=hidden;points=[[0,0.5],[1,0.5]];portConstraint=eastwest;rotatable=0;whiteSpace=wrap;html=1;" parent="gi1XLsN8kIvkIA_QPjhN-135" vertex="1">
          <mxGeometry y="60" width="170" height="30" as="geometry" />
        </mxCell>
        <mxCell id="gi1XLsN8kIvkIA_QPjhN-138" value="last_name" style="text;strokeColor=none;fillColor=none;align=left;verticalAlign=middle;spacingLeft=4;spacingRight=4;overflow=hidden;points=[[0,0.5],[1,0.5]];portConstraint=eastwest;rotatable=0;whiteSpace=wrap;html=1;" parent="gi1XLsN8kIvkIA_QPjhN-135" vertex="1">
          <mxGeometry y="90" width="170" height="30" as="geometry" />
        </mxCell>
        <mxCell id="gi1XLsN8kIvkIA_QPjhN-139" value="personal_id" style="text;strokeColor=none;fillColor=none;align=left;verticalAlign=middle;spacingLeft=4;spacingRight=4;overflow=hidden;points=[[0,0.5],[1,0.5]];portConstraint=eastwest;rotatable=0;whiteSpace=wrap;html=1;" parent="gi1XLsN8kIvkIA_QPjhN-135" vertex="1">
          <mxGeometry y="120" width="170" height="30" as="geometry" />
        </mxCell>
        <mxCell id="gi1XLsN8kIvkIA_QPjhN-140" value="K" style="text;html=1;align=center;verticalAlign=middle;whiteSpace=wrap;rounded=0;" parent="1" vertex="1">
          <mxGeometry x="565" y="970" width="60" height="30" as="geometry" />
        </mxCell>
        <mxCell id="gi1XLsN8kIvkIA_QPjhN-141" value="UUID" style="rounded=1;whiteSpace=wrap;html=1;fillColor=#E0F9FF;" parent="1" vertex="1">
          <mxGeometry x="540" y="976" width="35" height="20" as="geometry" />
        </mxCell>
        <mxCell id="gi1XLsN8kIvkIA_QPjhN-142" value="text" style="rounded=1;whiteSpace=wrap;html=1;fillColor=#E0F9FF;" parent="1" vertex="1">
          <mxGeometry x="540" y="1007" width="35" height="20" as="geometry" />
        </mxCell>
        <mxCell id="gi1XLsN8kIvkIA_QPjhN-143" value="text" style="rounded=1;whiteSpace=wrap;html=1;fillColor=#E0F9FF;" parent="1" vertex="1">
          <mxGeometry x="540" y="1037" width="35" height="20" as="geometry" />
        </mxCell>
        <mxCell id="gi1XLsN8kIvkIA_QPjhN-144" value="text" style="rounded=1;whiteSpace=wrap;html=1;fillColor=#E0F9FF;" parent="1" vertex="1">
          <mxGeometry x="540" y="1066" width="35" height="20" as="geometry" />
        </mxCell>
      </root>
    </mxGraphModel>
  </diagram>
</mxfile>
